<?xml version="1.0" standalone="no"?>
<!DOCTYPE svg PUBLIC "-//W3C//DTD SVG 20010904//EN"
 "http://www.w3.org/TR/2001/REC-SVG-20010904/DTD/svg10.dtd">
<svg version="1.0" xmlns="http://www.w3.org/2000/svg"
 width="890.000000pt" height="381.000000pt" viewBox="0 0 890.000000 381.000000"
 preserveAspectRatio="xMidYMid meet">

<g transform="translate(0.000000,381.000000) scale(0.100000,-0.100000)"
fill="#000000" stroke="none">
<path d="M100 1905 l0 -1905 25 0 25 0 0 1905 0 1905 -25 0 -25 0 0 -1905z"/>
<path d="M600 1905 l0 -1905 25 0 25 0 0 1905 0 1905 -25 0 -25 0 0 -1905z"/>
<path d="M700 1905 l0 -1905 50 0 50 0 0 1905 0 1905 -50 0 -50 0 0 -1905z"/>
<path d="M850 1905 l0 -1905 75 0 75 0 0 1905 0 1905 -75 0 -75 0 0 -1905z"/>
<path d="M1050 1905 l0 -1905 75 0 75 0 0 1905 0 1905 -75 0 -75 0 0 -1905z"/>
<path d="M1300 1905 l0 -1905 100 0 100 0 0 1905 0 1905 -100 0 -100 0 0
-1905z"/>
<path d="M1550 1905 l0 -1905 50 0 50 0 0 1905 0 1905 -50 0 -50 0 0 -1905z"/>
<path d="M1700 1905 l0 -1905 25 0 25 0 0 1905 0 1905 -25 0 -25 0 0 -1905z"/>
<path d="M1800 1905 l0 -1905 25 0 25 0 0 1905 0 1905 -25 0 -25 0 0 -1905z"/>
<path d="M1900 1905 l0 -1905 50 0 50 0 0 1905 0 1905 -50 0 -50 0 0 -1905z"/>
<path d="M2100 1905 l0 -1905 100 0 100 0 0 1905 0 1905 -100 0 -100 0 0
-1905z"/>
<path d="M2350 1905 l0 -1905 75 0 75 0 0 1905 0 1905 -75 0 -75 0 0 -1905z"/>
<path d="M2600 1905 l0 -1905 75 0 75 0 0 1905 0 1905 -75 0 -75 0 0 -1905z"/>
<path d="M2850 1905 l0 -1905 50 0 50 0 0 1905 0 1905 -50 0 -50 0 0 -1905z"/>
<path d="M3100 1905 l0 -1905 25 0 25 0 0 1905 0 1905 -25 0 -25 0 0 -1905z"/>
<path d="M3300 1905 l0 -1905 50 0 50 0 0 1905 0 1905 -50 0 -50 0 0 -1905z"/>
<path d="M3600 1905 l0 -1905 25 0 25 0 0 1905 0 1905 -25 0 -25 0 0 -1905z"/>
<path d="M3750 1905 l0 -1905 250 0 250 0 0 1905 0 1905 -250 0 -250 0 0
-1905z"/>
<path d="M4350 1905 l0 -1905 25 0 25 0 0 1905 0 1905 -25 0 -25 0 0 -1905z"/>
<path d="M4450 1905 l0 -1905 75 0 75 0 0 1905 0 1905 -75 0 -75 0 0 -1905z"/>
<path d="M4650 1905 l0 -1905 50 0 50 0 0 1905 0 1905 -50 0 -50 0 0 -1905z"/>
<path d="M4900 1905 l0 -1905 25 0 25 0 0 1905 0 1905 -25 0 -25 0 0 -1905z"/>
<path d="M5000 1905 l0 -1905 75 0 75 0 0 1905 0 1905 -75 0 -75 0 0 -1905z"/>
<path d="M5200 1905 l0 -1905 100 0 100 0 0 1905 0 1905 -100 0 -100 0 0
-1905z"/>
<path d="M5500 1905 l0 -1905 25 0 25 0 0 1905 0 1905 -25 0 -25 0 0 -1905z"/>
<path d="M5600 1905 l0 -1905 25 0 25 0 0 1905 0 1905 -25 0 -25 0 0 -1905z"/>
<path d="M5750 1905 l0 -1905 25 0 25 0 0 1905 0 1905 -25 0 -25 0 0 -1905z"/>
<path d="M5900 1905 l0 -1905 50 0 50 0 0 1905 0 1905 -50 0 -50 0 0 -1905z"/>
<path d="M6050 1905 l0 -1905 50 0 50 0 0 1905 0 1905 -50 0 -50 0 0 -1905z"/>
<path d="M6350 1905 l0 -1905 75 0 75 0 0 1905 0 1905 -75 0 -75 0 0 -1905z"/>
<path d="M6600 1905 l0 -1905 50 0 50 0 0 1905 0 1905 -50 0 -50 0 0 -1905z"/>
<path d="M6850 1905 l0 -1905 125 0 125 0 0 1905 0 1905 -125 0 -125 0 0
-1905z"/>
<path d="M7150 1905 l0 -1905 100 0 100 0 0 1905 0 1905 -100 0 -100 0 0
-1905z"/>
<path d="M7400 1905 l0 -1905 25 0 25 0 0 1905 0 1905 -25 0 -25 0 0 -1905z"/>
<path d="M7600 1905 l0 -1905 75 0 75 0 0 1905 0 1905 -75 0 -75 0 0 -1905z"/>
<path d="M7800 1905 l0 -1905 25 0 25 0 0 1905 0 1905 -25 0 -25 0 0 -1905z"/>
<path d="M7900 1905 l0 -1905 50 0 50 0 0 1905 0 1905 -50 0 -50 0 0 -1905z"/>
<path d="M8050 1905 l0 -1905 25 0 25 0 0 1905 0 1905 -25 0 -25 0 0 -1905z"/>
<path d="M8150 1905 l0 -1905 25 0 25 0 0 1905 0 1905 -25 0 -25 0 0 -1905z"/>
<path d="M8300 1905 l0 -1905 25 0 25 0 0 1905 0 1905 -25 0 -25 0 0 -1905z"/>
<path d="M8550 1905 l0 -1905 100 0 100 0 0 1905 0 1905 -100 0 -100 0 0
-1905z"/>
</g>
</svg>
